<svg width="95" height="95" viewBox="0 0 95 95" fill="none" xmlns="http://www.w3.org/2000/svg">
<path d="M62.3275 47.7359C66.7858 54.9894 77.4899 46.8258 78.4867 40.1194C86.2872 30.206 75.3474 21.3302 67.1459 30.393C59.9412 32.7495 54.8193 45.0382 62.3275 47.7359ZM63.6276 46.0837C56.5203 44.2365 63.0695 33.8735 67.9476 32.094L68.1724 31.4683C75.2986 23.432 83.3349 30.5582 76.2088 38.5945L75.9839 39.2202C75.4368 44.6752 66.8345 52.8876 63.0019 45.8589L63.6276 46.0837Z" fill="#124C5F" fill-opacity="0.5"/>
<path d="M44.3777 32.8093C48.836 40.0628 59.5402 31.8992 60.5369 25.1928C68.3375 15.2795 57.3976 6.40357 48.9713 16.0921C41.7666 18.4486 36.6448 30.7373 44.1529 33.435L44.3777 32.8093ZM45.6778 31.1571C38.5706 29.3099 45.1198 18.9469 49.9979 17.1674L50.2227 16.5417C57.3489 8.50541 65.3852 15.6316 58.259 23.6679L58.0342 24.2936C57.4871 29.7486 48.8848 37.961 45.0521 30.9323L45.6778 31.1571Z" fill="#124C5F" fill-opacity="0.5"/>
<path d="M65.3204 72.8308C69.6027 78.6082 78.5084 75.45 78.2537 68.294C83.6789 61.0594 73.3647 52.4083 66.6882 59.1933C59.9331 60.2984 58.6628 69.7323 64.6947 72.606L65.3204 72.8308ZM66.6205 71.1786L65.9948 70.9538C61.2142 68.5297 62.4358 61.1976 67.4899 60.8942L68.3404 60.4934C73.0912 55.1358 81.1275 62.262 76.3767 67.6195L76.1519 68.2452C76.4553 73.2994 69.6514 76.5063 66.3957 71.8043L66.6205 71.1786Z" fill="#124C5F" fill-opacity="0.5"/>
<path d="M19.5078 35.1766C23.79 40.9539 32.6958 37.7957 32.4411 30.6397C37.8663 23.4051 27.5521 14.754 20.8756 21.539C14.1204 22.6441 12.8502 32.078 18.8821 34.9517L19.5078 35.1766ZM20.8079 33.5243L20.1822 33.2995C15.4016 30.8754 16.6231 23.5433 21.6773 23.2399L22.5278 22.8391C27.2786 17.4815 35.3149 24.6077 30.5641 29.9652L30.3393 30.5909C30.6427 35.6451 23.8388 38.852 20.5831 34.15L20.8079 33.5243Z" fill="#124C5F" fill-opacity="0.5"/>
<path d="M55.9839 67.3565C69.2097 50.2086 40.9459 26.6307 26.6935 42.7033C3.47583 46.3708 11.8941 64.231 24.2614 75.0326C36.8535 85.2086 56.6991 90.9263 55.9839 67.3565ZM54.1069 66.682L53.8821 67.3077C54.646 88.7757 36.6774 83.7325 25.3367 74.0061C13.9959 64.2797 4.90324 48.2966 26.6448 44.8052L27.4953 44.4043C40.6723 29.3582 66.0326 51.1864 54.1069 66.682Z" fill="#124C5F" fill-opacity="0.5"/>
</svg>
